#!OML:ASF I:\Random Stuff\random\construction\7_22_03\Session 2\subj1.ASF
:FULLY-SPECIFIED
:DEGREES
471
root -8.56693 17.6573 -5.59181 -319.925 113.109 -334.864
lowerback 12.1916 1.99397 -7.26099
upperback 5.99793 2.53521 -8.49887
thorax -0.363193 1.5756 -5.18607
lowerneck -20.3058 -4.09883 -5.41235
upperneck 44.6777 -4.62576 8.414
head 22.9939 -0.872199 4.89006
rclavicle 3.49861e-014 -1.46306e-013
rhumerus 15.5514 75.5585 -34.7079
rradius 73.4881
rwrist 29.3208
rhand -15.3441 6.91523
rfingers 7.12502
rthumb 10.8329 -22.7854
lclavicle 3.49861e-014 -1.46306e-013
lhumerus 49.7565 -74.0425 41.9007
lradius 37.6121
lwrist -10.2591
lhand -16.0999 55.8369
lfingers 7.12502
lthumb 10.1038 85.5744
rfemur -11.404 -2.02482 23.8466
rtibia 6.04305e-014
rfoot -2.14493 -9.81853
rtoes -21.3202
lfemur -36.4442 -12.1552 -0.744454
ltibia 33.6574
lfoot -14.4429 0.763913
ltoes -36.3086
472
root -8.56903 17.6591 -5.59261 -319.938 113.108 -334.933
lowerback 12.2432 1.96729 -7.25892
upperback 5.97097 2.48889 -8.50723
thorax -0.421223 1.55312 -5.19399
lowerneck -20.2237 -4.08248 -5.44902
upperneck 44.6866 -4.60958 8.48893
head 22.9757 -0.86304 4.94409
rclavicle -1.11319e-014 7.95139e-014
rhumerus 17.5648 75.8438 -32.597
rradius 73.6595
rwrist 28.9
rhand -15.0017 6.8278
rfingers 7.12502
rthumb 11.1631 -22.8552
lclavicle -1.11319e-014 7.95139e-014
lhumerus 49.0987 -73.915 42.6148
lradius 37.5185
lwrist -10.3917
lhand -16.147 55.7554
lfingers 7.12502
lthumb 10.0583 85.4951
rfemur -11.4647 -2.03943 23.8166
rtibia -1.66979e-014
rfoot -2.11832 -9.80001
rtoes -21.1682
lfemur -36.4993 -12.28 -0.719994
ltibia 33.6049
lfoot -14.3682 0.913176
ltoes -36.4071
473
root -8.57096 17.6605 -5.59409 -319.983 113.064 -335.063
lowerback 12.2971 1.96248 -7.31154
upperback 5.93245 2.46438 -8.52228
thorax -0.493091 1.54098 -5.18186
lowerneck -20.1747 -4.09213 -5.42176
upperneck 44.7099 -4.6147 8.44919
head 22.9726 -0.864848 4.91592
rclavicle -4.45278e-014 9.54166e-015
rhumerus 19.1437 76.0076 -30.8773
rradius 73.8572
rwrist 28.1059
rhand -14.7167 6.90185
rfingers 7.12502
rthumb 11.438 -22.7661
lclavicle -4.45278e-014 9.54166e-015
lhumerus 48.4983 -73.7873 43.3176
lradius 37.45
lwrist -10.5463
lhand -16.048 55.6806
lfingers 7.12502
lthumb 10.1538 85.4156
rfemur -11.552 -2.03706 23.7384
rtibia 3.18055e-014
rfoot -2.05607 -9.78129
rtoes -21.5342
lfemur -36.5589 -12.4665 -0.710716
ltibia 33.5496
lfoot -14.3239 1.12878
ltoes -36.481
474
root -8.57161 17.6629 -5.5957 -320.077 112.988 -335.251
lowerback 12.3639 1.96807 -7.40487
upperback 5.8798 2.44698 -8.55748
thorax -0.586619 1.53297 -5.17093
lowerneck -20.1516 -4.10165 -5.36779
upperneck 44.7664 -4.60246 8.35951
head 23.0012 -0.861536 4.86331
rclavicle -6.67916e-014 4.45278e-014
rhumerus 20.2448 76.1652 -29.6797
rradius 74.0275
rwrist 27.4586
rhand -14.5255 6.6591
rfingers 7.12502
rthumb 11.6224 -22.9986
lclavicle -6.67916e-014 4.45278e-014
lhumerus 47.7397 -73.6505 44.1817
lradius 37.3911
lwrist -10.7105
lhand -15.9882 55.5715
lfingers 7.12502
lthumb 10.2115 85.3037
rfemur -11.6387 -2.0245 23.6201
rtibia -2.46493e-014
rfoot -2.02865 -9.78841
rtoes -21.7562
lfemur -36.6136 -12.6599 -0.735816
ltibia 33.511
lfoot -14.2888 1.35262
ltoes -36.4391
475
root -8.57146 17.665 -5.59778 -320.013 112.934 -335.283
lowerback 12.3902 1.96172 -7.39877
upperback 5.82243 2.429 -8.62295
thorax -0.65898 1.52685 -5.2462
lowerneck -20.1192 -4.08167 -5.28867
upperneck 44.8238 -4.58129 8.33983
head 23.0303 -0.84052 4.84873
rclavicle -9.54166e-015 3.81667e-014
rhumerus 21.4455 76.3826 -28.4601
rradius 74.2294
rwrist 27.0395
rhand -14.2509 5.98891
rfingers 7.12502
rthumb 11.8872 -23.6536
lclavicle -9.54166e-015 3.81667e-014
lhumerus 46.989 -73.5235 44.9509
lradius 37.3511
lwrist -10.7934
lhand -15.8963 55.4624
lfingers 7.12502
lthumb 10.3001 85.1902
rfemur -11.7383 -1.98656 23.5704
rtibia 8.74653e-015
rfoot -2.04333 -9.80511
rtoes -21.5417
lfemur -36.7017 -12.7519 -0.711668
ltibia 33.5122
lfoot -14.2555 1.49701
ltoes -36.2627
476
root -8.57063 17.6651 -5.60041 -319.771 112.957 -335.115
lowerback 12.3606 1.95181 -7.24136
upperback 5.80465 2.43483 -8.68152
thorax -0.654154 1.53392 -5.39743
lowerneck -20.0888 -4.07011 -5.24102
upperneck 44.8399 -4.59616 8.38484
head 23.037 -0.830611 4.86353
rclavicle -3.65764e-014 4.77083e-014
rhumerus 22.6934 76.5288 -27.2451
rradius 74.3186
rwrist 26.5765
rhand -14.2202 5.54258
rfingers 7.12502
rthumb 11.9168 -24.0983
lclavicle -3.65764e-014 4.77083e-014
lhumerus 46.9065 -73.4861 44.9716
lradius 37.389
lwrist -10.793
lhand -15.8142 55.4473
lfingers 7.12502
lthumb 10.3794 85.1711
rfemur -11.8229 -1.9566 23.6374
rtibia -9.54166e-015
rfoot -2.06662 -9.80011
rtoes -21.7819
lfemur -36.8083 -12.7247 -0.613942
ltibia 33.5537
lfoot -14.2618 1.55128
ltoes -36.3545
477
root -8.56848 17.6622 -5.60242 -319.514 113.064 -334.905
lowerback 12.3233 1.95005 -7.02457
upperback 5.8251 2.46327 -8.70524
thorax -0.60356 1.55197 -5.5456
lowerneck -20.0891 -4.0914 -5.24273
upperneck 44.8234 -4.65003 8.42853
head 23.036 -0.845145 4.87419
rclavicle 1.59028e-014 -2.8625e-014
rhumerus 23.2947 76.5381 -26.6963
rradius 74.3092
rwrist 25.8848
rhand -14.4437 5.40509
rfingers 7.12502
rthumb 11.7012 -24.2481
lclavicle 1.59028e-014 -2.8625e-014
lhumerus 47.0621 -73.496 44.7903
lradius 37.4621
lwrist -10.8889
lhand -15.718 55.4948
lfingers 7.12502
lthumb 10.4722 85.2139
rfemur -11.8651 -1.9785 23.7731
rtibia -3.49861e-014
rfoot -2.09111 -9.76244
rtoes -22.0458
lfemur -36.9147 -12.7725 -0.434687
ltibia 33.6165
lfoot -14.2831 1.63999
ltoes -36.5166
478
root -8.56521 17.6614 -5.60463 -319.347 113.15 -334.787
lowerback 12.3045 1.97856 -6.86308
upperback 5.85128 2.52525 -8.72119
thorax -0.556788 1.58627 -5.65974
lowerneck -20.1216 -4.14778 -5.28893
upperneck 44.7721 -4.75394 8.4814
head 23.0293 -0.885606 4.88312
rclavicle 4.6118e-014 -2.22639e-014
rhumerus 22.9957 76.4152 -27.0169
rradius 74.3863
rwrist 24.7839
rhand -14.3377 5.46461
rfingers 7.12502
rthumb 11.8034 -24.1828
lclavicle 4.6118e-014 -2.22639e-014
lhumerus 47.2322 -73.5341 44.6913
lradius 37.5025
lwrist -11.0453
lhand -15.4458 55.6506
lfingers 7.12502
lthumb 10.7347 85.3564
rfemur -11.895 -2.0099 23.8638
rtibia 3.97569e-015
rfoot -2.12784 -9.7435
rtoes -21.5198
lfemur -37.0218 -12.6595 -0.370949
ltibia 33.6849
lfoot -14.2725 1.53138
ltoes -36.8598
479
root -8.56279 17.6639 -5.60796 -319.287 113.188 -334.802
lowerback 12.3116 2.0024 -6.79321
upperback 5.85006 2.56431 -8.7423
thorax -0.556502 1.60799 -5.72749
lowerneck -20.1395 -4.19513 -5.29856
upperneck 44.7545 -4.8309 8.48467
head 23.0358 -0.915374 4.86664
rclavicle 7.95139e-015 -1.90833e-014
rhumerus 22.5134 76.3052 -27.5164
rradius 74.5769
rwrist 23.3461
rhand -13.946 5.52552
rfingers 7.12502
rthumb 12.1812 -24.0998
lclavicle 7.95139e-015 -1.90833e-014
lhumerus 47.4833 -73.5954 44.4861
lradius 37.5465
lwrist -11.0441
lhand -15.1198 55.8874
lfingers 7.12502
lthumb 11.0492 85.5766
rfemur -11.9418 -2.0389 23.8763
rtibia 7.95139e-015
rfoot -2.20405 -9.77878
rtoes -20.975
lfemur -37.1455 -12.5412 -0.390856
ltibia 33.7437
lfoot -14.2362 1.42002
ltoes -37.2159
480
root -8.56195 17.6644 -5.61319 -319.302 113.248 -334.918
lowerback 12.3198 1.97196 -6.74148
upperback 5.82112 2.52443 -8.7693
thorax -0.590836 1.58977 -5.78212
lowerneck -20.1311 -4.19406 -5.24285
upperneck 44.7857 -4.82648 8.43977
head 23.0521 -0.908636 4.83458
rclavicle 2.06736e-014 -1.08139e-013
rhumerus 22.2015 76.2697 -27.9399
rradius 74.7931
rwrist 22.033
rhand -13.5918 5.19198
rfingers 7.12502
rthumb 12.5227 -24.4128
lclavicle 2.06736e-014 -1.08139e-013
lhumerus 47.528 -73.6257 44.4204
lradius 37.5702
lwrist -10.9541
lhand -15.0864 56.0613
lfingers 7.12502
lthumb 11.0814 85.7488
rfemur -12.0174 -2.11315 23.8626
rtibia -1.35174e-014
rfoot -2.28159 -9.80139
rtoes -21.1297
lfemur -37.3026 -12.6878 -0.339368
ltibia 33.7854
lfoot -14.2167 1.54227
ltoes -37.1578
481
root -8.5609 17.6629 -5.61959 -319.359 113.318 -335.062
lowerback 12.343 1.928 -6.67112
upperback 5.79677 2.46801 -8.7999
thorax -0.628628 1.56401 -5.84972
lowerneck -20.1262 -4.18294 -5.2432
upperneck 44.8106 -4.80923 8.46079
head 23.0727 -0.899287 4.85509
rclavicle 6.52014e-014 6.67916e-014
rhumerus 21.6151 76.2041 -28.7052
rradius 74.9535
rwrist 21.0442
rhand -13.3888 4.62742
rfingers 7.12502
rthumb 12.7184 -24.9653
lclavicle 6.52014e-014 6.67916e-014
lhumerus 47.467 -73.6478 44.4452
lradius 37.5917
lwrist -10.9516
lhand -15.2297 56.2245
lfingers 7.12502
lthumb 10.9432 85.9193
rfemur -12.0766 -2.20668 23.8397
rtibia -1.90833e-014
rfoot -2.31369 -9.79172
rtoes -21.1955
lfemur -37.4366 -12.8381 -0.304483
ltibia 33.8149
lfoot -14.2314 1.6445
ltoes -37.0301
482
root -8.55924 17.661 -5.62452 -319.414 113.382 -335.165
lowerback 12.3873 1.91559 -6.60156
upperback 5.79832 2.45539 -8.81866
thorax -0.64853 1.56034 -5.91017
lowerneck -20.1329 -4.1886 -5.25606
upperneck 44.8318 -4.82427 8.5074
head 23.1041 -0.900699 4.88553
rclavicle 2.38542e-014 5.08889e-014
rhumerus 20.5752 76.0397 -29.8994
rradius 75.0545
rwrist 19.8837
rhand -13.2731 4.21792
rfingers 7.12502
rthumb 12.8299 -25.3678
lclavicle 2.38542e-014 5.08889e-014
lhumerus 47.6067 -73.6887 44.2984
lradius 37.6471
lwrist -11.0685
lhand -15.1795 56.2402
lfingers 7.12502
lthumb 10.9916 85.9324
rfemur -12.0978 -2.2848 23.8295
rtibia -2.3059e-014
rfoot -2.33205 -9.78425
rtoes -20.9618
lfemur -37.5459 -13.2622 -0.156638
ltibia 33.8588
lfoot -14.284 2.0188
ltoes -36.7859
483
root -8.55696 17.6625 -5.62833 -319.389 113.465 -335.179
lowerback 12.4288 1.91834 -6.49285
upperback 5.79417 2.46647 -8.84465
thorax -0.670085 1.56919 -6.00376
lowerneck -20.0964 -4.19743 -5.13588
upperneck 44.8511 -4.87128 8.47818
head 23.1044 -0.897527 4.8347
rclavicle 5.08889e-014 -6.99722e-014
rhumerus 19.0415 75.7716 -31.5888
rradius 75.1325
rwrist 17.8538
rhand -12.985 3.99657
rfingers 7.12502
rthumb 13.1076 -25.5715
lclavicle 5.08889e-014 -6.99722e-014
lhumerus 48.0102 -73.7737 43.8919
lradius 37.7098
lwrist -11.207
lhand -14.99 56.1122
lfingers 7.12502
lthumb 11.1744 85.7946
rfemur -12.1244 -2.35031 23.8699
rtibia -6.36111e-015
rfoot -2.34468 -9.76262
rtoes -21.1485
lfemur -37.6345 -12.9626 -0.233378
ltibia 33.9099
lfoot -14.2928 1.64726
ltoes -36.9153
484
root -8.55085 17.6618 -5.62986 -319.251 113.54 -335.051
lowerback 12.4777 1.93125 -6.38618
upperback 5.76569 2.48536 -8.87517
thorax -0.720813 1.58142 -6.10349
lowerneck -20.0318 -4.22778 -4.98809
upperneck 44.8838 -4.9626 8.44291
head 23.1111 -0.906171 4.76525
rclavicle -1.08139e-013 -2.54444e-014
rhumerus 17.1905 75.4653 -33.6318
rradius 75.1905
rwrist 15.1913
rhand -12.3992 3.57497
rfingers 7.12502
rthumb 13.6723 -25.9559
lclavicle -1.08139e-013 -2.54444e-014
lhumerus 48.625 -73.916 43.2412
lradius 37.7567
lwrist -11.3206
lhand -14.7972 56.1562
lfingers 7.12502
lthumb 11.3604 85.8285
rfemur -12.1184 -2.36993 23.9654
rtibia -5.88403e-014
rfoot -2.37672 -9.75175
rtoes -21.4474
lfemur -37.6724 -12.8512 -0.175315
ltibia 33.9636
lfoot -14.3086 1.49926
ltoes -36.8227
485
root -8.54016 17.6602 -5.62795 -319.159 113.603 -334.93
lowerback 12.5378 1.95902 -6.36108
upperback 5.74633 2.51623 -8.89587
thorax -0.770028 1.59849 -6.1486
lowerneck -20.0157 -4.29743 -4.94637
upperneck 44.9206 -5.11537 8.50419
head 23.1712 -0.945863 4.76202
rclavicle 6.36111e-015 3.49861e-014
rhumerus 15.2615 75.1706 -35.7446
rradius 75.2305
rwrist 13.0426
rhand -12.336 3.57068
rfingers 7.12502
rthumb 13.7332 -25.9561
lclavicle 6.36111e-015 3.49861e-014
lhumerus 49.6288 -74.1223 42.1581
lradius 37.8326
lwrist -11.3047
lhand -14.5715 56.3543
lfingers 7.12502
lthumb 11.578 86.0145
rfemur -12.0399 -2.37926 24.061
rtibia -6.36111e-015
rfoot -2.45087 -9.76216
rtoes -21.3827
lfemur -37.6279 -12.7101 -0.142966
ltibia 34.0072
lfoot -14.3783 1.35056
ltoes -36.7717
